# xmcd CD database file
#
# Track frame offsets:
#	150
#	16132
#	31917
#	51240
#	66357
#	91170
#	109110
#	127285
#	145380
#	165807
#	183967
#
# Disc length: 2740 seconds
#
# Revision: 1
# Processed by: cddbd v1.4PL0 Copyright (c) Steve Scherf et al.
# Submitted via: CDex 1.50beta10
#
DISCID=8f0ab20b
DTITLE=Bluesbreakers - Boom Boom
DYEAR=1991
DGENRE=Blues
TTITLE0=Inside Fire
TTITLE1=Speedy Rudy
TTITLE2=I'm Gonna Make You Mine
TTITLE3=Dreams
TTITLE4=Restless Rider
TTITLE5=Moving On
TTITLE6=Same Old Story
TTITLE7=Spread Your Wings
TTITLE8=Bad Girl
TTITLE9=Boom Boom Gang
TTITLE10=For You
EXTD=YEAR: 1991
EXTT0=
EXTT1=
EXTT2=
EXTT3=
EXTT4=
EXTT5=
EXTT6=
EXTT7=
EXTT8=
EXTT9=
EXTT10=
PLAYORDER=
